<svg width="172" height="255" viewBox="0 0 172 255" fill="none" xmlns="http://www.w3.org/2000/svg">
<path d="M97.6409 235.506C98.8941 235.425 99.3442 235.643 99.8232 235.499C129.751 217.897 151.207 191.255 161.521 153.903C164.146 144.478 164.631 134.518 163.244 124.59C160.431 103.276 146.568 87.623 128.242 84.8836C118.699 83.3926 109.307 83.9134 100.454 89.3858C99.4154 94.5748 98.5315 99.7761 97.2121 104.579C95.0274 112.403 90.9454 118.621 84.2786 122.087C79.3874 124.786 74.742 124.414 72.4958 121.326C69.5477 117.272 69.9525 112.214 72.2981 108.22C75.548 102.663 79.3884 97.5166 83.3547 92.7438C85.9377 89.6782 89.2515 87.2166 92.2556 84.7301C91.257 64.1072 75.3825 54.1103 54.8826 61.0139C54.0319 63.8545 53.1667 66.8758 52.1611 69.704C48.2111 80.1138 41.8311 87.784 32.2367 90.8337C28.5596 91.9938 24.645 92.2258 21.8517 88.1845C19.7604 85.1084 20.1652 80.0505 23.0476 75.1909C27.7098 67.5651 34.1971 62.4487 41.091 58.092C43.5438 56.6522 45.9967 55.2123 48.435 53.9531C47.8684 22.0935 25.3504 -2.25165 0.491921 8.48433C0.834733 6.14842 0.838925 4.149 1.54506 3.11474C2.42051 1.91225 4.18166 1.32603 5.60419 1.0763C18.9975 -0.760394 31.0858 2.02515 40.2543 14.0304C47.1767 22.9471 51.477 33.4719 53.9582 45.3054C54.2926 46.9684 54.6271 48.6313 55.1163 50.3066C55.1018 50.4873 55.397 50.6927 55.9731 51.2842C57.3811 51.2151 59.0845 51.3514 60.8167 51.1265C81.8697 48.9939 92.1885 56.3645 99.9816 79.7128C101.898 79.139 104.123 78.59 106.209 77.8479C118.508 74.1057 130.46 74.6987 142.162 80.3621C161.22 89.523 172.342 110.229 171.74 135.269C171.43 148.879 168.376 161.723 163.183 174.033C150.519 203.743 131.873 226.43 105.53 240.137C104.219 240.941 102.767 241.552 101.456 242.356C101.287 242.525 101.103 242.874 100.552 243.92C105.701 245.787 110.699 245.641 115.683 245.677C120.498 245.88 125.496 245.735 130.79 245.795C129.95 250.455 127.637 252.088 124.918 252.961C121.734 253.797 118.522 254.994 115.41 254.927C107.02 254.619 98.4888 254.118 90.0156 252.894C83.4006 251.819 81.875 247.516 85.3231 241.429C92.7418 228.57 100.315 215.723 107.889 202.876C109.146 200.795 110.684 199.101 112.59 196.708C115.214 200.917 113.744 203.709 112.443 206.331C107.327 215.739 102.675 225.183 97.6409 235.506ZM26.9309 83.1372C37.7454 82.3667 45.04 74.9515 46.401 63.7891C38.8443 68.6381 31.6407 72.97 26.9309 83.1372ZM77.0279 115.326C86.3663 113.528 91.2803 106.649 91.2332 95.556C84.8864 100.865 79.3427 105.876 77.0279 115.326Z" fill="white"/>
</svg>
