<svg width="58" height="58" viewBox="0 0 58 58" fill="none" xmlns="http://www.w3.org/2000/svg">
<g clip-path="url(#clip0_7_578)" filter="url(#filter0_f_7_578)">
<path d="M19.6825 54.6401C20.8405 54.001 21.9984 53.3619 23.3703 52.599C22.8758 52.3193 22.5478 52.1137 22.1573 51.9599C14.1231 48.4857 9.79026 41.265 10.4574 32.5072C10.921 26.8826 13.3525 22.1733 16.8204 17.8254C20.7113 12.9692 25.8649 10.0876 31.7459 8.40506C34.775 7.54353 37.8231 7.72524 40.8546 8.39711C41.6463 8.59007 42.4067 8.80891 43.2292 9.29414C42.76 9.36408 42.2543 9.51722 41.8325 9.38927C31.3895 6.63463 18.5721 14.525 13.94 25.8176C12.1134 30.2388 11.7769 34.8055 13.113 39.4196C14.6925 44.8385 19.7543 49.498 25.2136 50.4936C24.6073 48.612 22.5984 47.201 23.2594 44.7488C24.8606 46.8143 26.3372 48.6651 27.7564 50.5103C28.2191 51.134 28.2959 51.8647 27.6023 52.173C25.245 53.2737 22.867 54.2855 20.4943 55.24C20.3431 55.312 20.0465 55.0806 19.8225 55.0009C19.7392 54.9639 19.6979 54.7863 19.6825 54.6401Z" fill="white"/>
</g>
<defs>
<filter id="filter0_f_7_578" x="-2" y="-1.01715" width="61.9691" height="60.1951" filterUnits="userSpaceOnUse" color-interpolation-filters="sRGB">
<feFlood flood-opacity="0" result="BackgroundImageFix"/>
<feBlend mode="normal" in="SourceGraphic" in2="BackgroundImageFix" result="shape"/>
<feGaussianBlur stdDeviation="1" result="effect1_foregroundBlur_7_578"/>
</filter>
<clipPath id="clip0_7_578">
<rect width="47.1683" height="33.9224" fill="white" transform="translate(0 31.0273) rotate(-39.5657)"/>
</clipPath>
</defs>
</svg>
