<svg width="151" height="64" viewBox="0 0 151 64" fill="none" xmlns="http://www.w3.org/2000/svg">
<g filter="url(#filter0_f_10_675)">
<path d="M72.124 53.4337C74.7853 52.4752 78.1867 51.6847 80.9027 50.2007C86.5697 47.0553 92.0082 43.6788 97.4468 40.3022C107.716 33.8466 118.033 27.2738 129.193 20.2263C118.999 19.0391 109.516 22.8038 99.3511 16.8326C100.899 15.8263 101.659 14.769 102.447 14.8199C114.784 15.5203 126.51 13.7762 137.924 11.2183C147.333 9.20441 150.49 12.1499 148.32 20.1626C146.006 28.5267 144.659 37.29 142.76 45.8251C142.506 47.2276 141.373 48.4051 140.559 49.9879C135.575 45.1929 135.575 45.1929 137.787 25.6873C136.053 26.7537 134.602 27.5258 133.289 28.3549C120.152 37.0545 107.154 45.8111 93.7898 54.2794C89.4293 57.0041 84.6119 59.2663 79.5726 60.889C70.6137 63.7737 63.3771 60.5168 59.6132 51.9767C57.6861 47.6195 56.879 42.9018 56.3485 38.2982C55.7345 33.1119 56.0955 27.9165 55.8064 22.7272C55.5397 19.0544 54.8097 15.3277 54.3146 11.4238C49.446 11.0613 46.6752 13.071 43.7242 14.7322C31.2639 21.792 20.5894 30.4099 11.0988 40.4752C9.96599 41.6526 9.06161 43.0613 7.56199 43.9505C6.71886 44.4251 4.95548 44.3834 3.84859 43.9272C3.29514 43.699 2.71933 41.9543 2.87066 41.1945C3.55307 39.1463 4.60878 36.9778 5.93471 35.3319C15.3611 23.4588 27.0301 13.6063 40.9836 6.06582C43.7479 4.46463 46.9691 3.32583 50.1838 2.59545C56.0533 1.31499 60.571 3.31417 62.7135 8.71934C64.4538 13.1366 65.1227 17.7973 65.5148 22.3439C66.1512 29.0467 65.8608 35.6416 66.4972 42.3444C66.9505 45.957 67.6323 49.8009 72.124 53.4337Z" fill="white"/>
</g>
<defs>
<filter id="filter0_f_10_675" x="0.846069" y="0.221436" width="150.129" height="63.6952" filterUnits="userSpaceOnUse" color-interpolation-filters="sRGB">
<feFlood flood-opacity="0" result="BackgroundImageFix"/>
<feBlend mode="normal" in="SourceGraphic" in2="BackgroundImageFix" result="shape"/>
<feGaussianBlur stdDeviation="1" result="effect1_foregroundBlur_10_675"/>
</filter>
</defs>
</svg>
