<svg width="69" height="73" viewBox="0 0 69 73" fill="none" xmlns="http://www.w3.org/2000/svg">
<g clip-path="url(#clip0_7_525)">
<path d="M3.39103 22.8863C4.08681 24.369 4.7826 25.8517 5.61397 27.6087C5.99967 27.0204 6.28028 26.6319 6.50203 26.1618C11.4467 16.5162 20.7206 11.7481 31.488 13.283C38.4004 14.3121 44.0222 17.6987 49.1133 22.3366C54.7982 27.5383 57.9408 34.1402 59.5427 41.5435C60.3615 45.3563 59.8897 49.1078 58.8135 52.7993C58.5109 53.7619 58.1788 54.6837 57.5125 55.6606C57.4641 55.0753 57.3159 54.438 57.5082 53.9271C61.7592 41.2468 53.0493 24.7687 39.4714 18.1289C34.1565 15.5132 28.5411 14.7269 22.7312 16.0035C15.9072 17.5156 9.73902 23.3922 8.06598 30.0572C10.4402 29.4607 12.3466 27.0929 15.323 28.1086C12.6409 29.9196 10.2342 31.594 7.83903 33.1979C7.03083 33.719 6.12173 33.7547 5.79696 32.8726C4.62819 29.8705 3.57083 26.85 2.58389 23.8408C2.50716 23.648 2.8172 23.3003 2.93385 23.0301C2.9864 22.9301 3.2092 22.8934 3.39103 22.8863Z" fill="white"/>
</g>
<defs>
<clipPath id="clip0_7_525">
<rect width="58.409" height="42.0065" fill="white" transform="translate(34.165 0.481323) rotate(54.1908)"/>
</clipPath>
</defs>
</svg>
