<svg width="243" height="243" viewBox="0 0 243 243" fill="none" xmlns="http://www.w3.org/2000/svg">
<path d="M64.2729 191.465C66.4492 195.032 73.9521 197.388 98.5276 190.839C105.196 189.06 110.115 183.405 110.959 176.558L126.025 54.1875C123.789 74.0527 117.906 103.388 100.287 133.529C81.9419 164.951 59.1551 183.048 64.2729 191.465Z" fill="#333333"/>
<path fill-rule="evenodd" clip-rule="evenodd" d="M64.2729 191.465C66.4492 195.032 73.9521 197.388 98.5276 190.839C105.196 189.06 110.115 183.405 110.959 176.558L126.025 54.1875C123.789 74.0527 117.906 103.388 100.287 133.529C81.9419 164.951 59.1551 183.048 64.2729 191.465Z" fill="#333333"/>
<path d="M176.11 48.523C173.934 44.9554 166.431 42.6002 141.855 49.1491C135.187 50.9279 130.268 56.5824 129.423 63.4293L114.358 185.8C116.594 165.935 122.477 136.599 140.096 106.459C158.451 75.0364 181.238 56.9401 176.11 48.523Z" fill="#333333"/>
<path fill-rule="evenodd" clip-rule="evenodd" d="M176.11 48.523C173.934 44.9554 166.431 42.6002 141.855 49.1491C135.187 50.9279 130.268 56.5824 129.423 63.4293L114.358 185.8C116.594 165.935 122.477 136.599 140.096 106.459C158.451 75.0364 181.238 56.9401 176.11 48.523Z" fill="#333333"/>
</svg>
