<svg width="72" height="72" viewBox="0 0 72 72" fill="none" xmlns="http://www.w3.org/2000/svg">
<path d="M49.5 6.75H22.5C18.3242 6.75447 14.3207 8.41527 11.368 11.368C8.41527 14.3207 6.75447 18.3242 6.75 22.5V49.5C6.75447 53.6758 8.41527 57.6793 11.368 60.632C14.3207 63.5847 18.3242 65.2455 22.5 65.25H49.5C53.6758 65.2455 57.6793 63.5847 60.632 60.632C63.5847 57.6793 65.2455 53.6758 65.25 49.5V22.5C65.2455 18.3242 63.5847 14.3207 60.632 11.368C57.6793 8.41527 53.6758 6.75447 49.5 6.75ZM36 49.5C33.33 49.5 30.7199 48.7082 28.4998 47.2248C26.2797 45.7414 24.5494 43.633 23.5276 41.1662C22.5058 38.6994 22.2385 35.985 22.7594 33.3663C23.2803 30.7475 24.566 28.3421 26.4541 26.4541C28.3421 24.566 30.7475 23.2803 33.3663 22.7594C35.985 22.2385 38.6994 22.5058 41.1662 23.5276C43.633 24.5494 45.7414 26.2797 47.2248 28.4998C48.7082 30.7199 49.5 33.33 49.5 36C49.4963 39.5793 48.0728 43.0109 45.5418 45.5418C43.0109 48.0728 39.5793 49.4963 36 49.5ZM52.875 22.5C52.2075 22.5 51.555 22.3021 51 21.9312C50.4449 21.5604 50.0124 21.0333 49.7569 20.4166C49.5015 19.7999 49.4346 19.1213 49.5648 18.4666C49.6951 17.8119 50.0165 17.2105 50.4885 16.7385C50.9605 16.2665 51.5619 15.9451 52.2166 15.8148C52.8713 15.6846 53.5499 15.7515 54.1666 16.0069C54.7833 16.2624 55.3104 16.6949 55.6812 17.25C56.0521 17.805 56.25 18.4575 56.25 19.125C56.25 20.0201 55.8944 20.8786 55.2615 21.5115C54.6285 22.1444 53.7701 22.5 52.875 22.5ZM45 36C45 37.78 44.4722 39.5201 43.4832 41.0001C42.4943 42.4802 41.0887 43.6337 39.4441 44.3149C37.7996 44.9961 35.99 45.1743 34.2442 44.8271C32.4984 44.4798 30.8947 43.6226 29.636 42.364C28.3774 41.1053 27.5202 39.5016 27.1729 37.7558C26.8257 36.01 27.0039 34.2004 27.6851 32.5558C28.3663 30.9113 29.5198 29.5057 30.9999 28.5168C32.4799 27.5278 34.22 27 36 27C38.3869 27 40.6761 27.9482 42.364 29.636C44.0518 31.3239 45 33.6131 45 36Z" fill="#3EF1CE"/>
</svg>
