<svg width="620" height="693" viewBox="0 0 620 693" fill="none" xmlns="http://www.w3.org/2000/svg">
<g filter="url(#filter0_df_7_584)">
<path d="M520.325 70.7788C537.819 70.8871 551.829 98.5399 551.619 132.543L548.951 563.521C548.741 597.524 534.389 625.001 516.895 624.893L99.6107 622.31C82.1171 622.202 68.1062 594.549 68.3167 560.546L70.9842 129.568C71.1947 95.565 85.5467 68.0878 103.04 68.196L520.325 70.7788Z" fill="url(#paint0_linear_7_584)" shape-rendering="crispEdges"/>
<path d="M520.325 70.7788C537.819 70.8871 551.829 98.5399 551.619 132.543L548.951 563.521C548.741 597.524 534.389 625.001 516.895 624.893L99.6107 622.31C82.1171 622.202 68.1062 594.549 68.3167 560.546L70.9842 129.568C71.1947 95.565 85.5467 68.0878 103.04 68.196L520.325 70.7788Z" fill="url(#paint1_linear_7_584)" shape-rendering="crispEdges"/>
</g>
<defs>
<filter id="filter0_df_7_584" x="0.314453" y="0.195731" width="619.307" height="692.697" filterUnits="userSpaceOnUse" color-interpolation-filters="sRGB">
<feFlood flood-opacity="0" result="BackgroundImageFix"/>
<feColorMatrix in="SourceAlpha" type="matrix" values="0 0 0 0 0 0 0 0 0 0 0 0 0 0 0 0 0 0 127 0" result="hardAlpha"/>
<feOffset dy="4"/>
<feGaussianBlur stdDeviation="2"/>
<feComposite in2="hardAlpha" operator="out"/>
<feColorMatrix type="matrix" values="0 0 0 0 0 0 0 0 0 0 0 0 0 0 0 0 0 0 0.25 0"/>
<feBlend mode="normal" in2="BackgroundImageFix" result="effect1_dropShadow_7_584"/>
<feBlend mode="normal" in="SourceGraphic" in2="effect1_dropShadow_7_584" result="shape"/>
<feGaussianBlur stdDeviation="34" result="effect2_foregroundBlur_7_584"/>
</filter>
<linearGradient id="paint0_linear_7_584" x1="461.871" y1="562.425" x2="247.522" y2="60.0646" gradientUnits="userSpaceOnUse">
<stop stop-color="#3C5ED9"/>
<stop offset="0.132291" stop-color="#2645EB" stop-opacity="0.902649"/>
<stop offset="0.307571" stop-color="#1190DA"/>
<stop offset="0.728241" stop-color="#17EBB4" stop-opacity="0.82"/>
</linearGradient>
<linearGradient id="paint1_linear_7_584" x1="461.871" y1="562.425" x2="247.522" y2="60.0646" gradientUnits="userSpaceOnUse">
<stop stop-color="#3C5ED9"/>
<stop offset="0.132291" stop-color="#2645EB" stop-opacity="0.902649"/>
<stop offset="0.307571" stop-color="#1190DA"/>
<stop offset="0.728241" stop-color="#17EBB4" stop-opacity="0.82"/>
</linearGradient>
</defs>
</svg>
