<svg width="114" height="138" viewBox="0 0 114 138" fill="none" xmlns="http://www.w3.org/2000/svg">
<path d="M51.9831 70.5302C55.6396 71.8166 59.2293 71.6152 62.7523 69.926C66.2752 68.2367 68.6769 65.5653 69.9574 61.9116C71.2438 58.2551 71.0424 54.6654 69.3531 51.1424C67.6639 47.6195 64.9925 45.2178 61.3388 43.9373C57.6823 42.6509 54.0926 42.8523 50.5696 44.5416C47.0466 46.2308 44.6449 48.9022 43.3645 52.5559C42.0781 56.2124 42.2795 59.8021 43.9687 63.3251C45.658 66.8481 48.3294 69.2498 51.9831 70.5302ZM28.5937 137.012C16.0949 115.556 7.73196 96.7702 3.50495 80.6547C-0.722073 64.5391 -0.887902 50.9382 3.00746 39.8519C8.85481 23.2313 18.8606 11.8716 33.0248 5.77268C47.1889 -0.326258 61.3048 -0.901127 75.3725 4.04807C89.4445 8.99883 100.093 18.2862 107.319 31.9103C114.544 45.5344 115.231 60.656 109.379 77.2749C105.481 88.3553 96.8353 98.8563 83.443 108.778C70.0507 118.7 51.7676 128.111 28.5937 137.012Z" fill="#3EF1CE"/>
</svg>
