<svg width="805" height="702" viewBox="0 0 805 702" fill="none" xmlns="http://www.w3.org/2000/svg">
<g filter="url(#filter0_df_26_710)">
<path d="M112.089 634C87.7392 634 68 605.844 68 571.111L68 130.889C68 96.1563 87.7392 68 112.089 68L692.911 68C717.261 68 737 96.1563 737 130.889V571.111C737 605.844 717.261 634 692.911 634L112.089 634Z" fill="url(#paint0_linear_26_710)" shape-rendering="crispEdges"/>
<path d="M112.089 634C87.7392 634 68 605.844 68 571.111L68 130.889C68 96.1563 87.7392 68 112.089 68L692.911 68C717.261 68 737 96.1563 737 130.889V571.111C737 605.844 717.261 634 692.911 634L112.089 634Z" fill="url(#paint1_linear_26_710)" shape-rendering="crispEdges"/>
</g>
<defs>
<filter id="filter0_df_26_710" x="0" y="0" width="805" height="702" filterUnits="userSpaceOnUse" color-interpolation-filters="sRGB">
<feFlood flood-opacity="0" result="BackgroundImageFix"/>
<feColorMatrix in="SourceAlpha" type="matrix" values="0 0 0 0 0 0 0 0 0 0 0 0 0 0 0 0 0 0 127 0" result="hardAlpha"/>
<feOffset dy="4"/>
<feGaussianBlur stdDeviation="2"/>
<feComposite in2="hardAlpha" operator="out"/>
<feColorMatrix type="matrix" values="0 0 0 0 0 0 0 0 0 0 0 0 0 0 0 0 0 0 0.25 0"/>
<feBlend mode="normal" in2="BackgroundImageFix" result="effect1_dropShadow_26_710"/>
<feBlend mode="normal" in="SourceGraphic" in2="effect1_dropShadow_26_710" result="shape"/>
<feGaussianBlur stdDeviation="34" result="effect2_foregroundBlur_26_710"/>
</filter>
<linearGradient id="paint0_linear_26_710" x1="87.9973" y1="95" x2="663.527" y2="535.23" gradientUnits="userSpaceOnUse">
<stop stop-color="#3C5ED9"/>
<stop offset="0.564583" stop-color="#2645EB" stop-opacity="0.902649"/>
<stop offset="0.858648" stop-color="#1190DA"/>
<stop offset="1" stop-color="#17EBB4" stop-opacity="0.82"/>
</linearGradient>
<linearGradient id="paint1_linear_26_710" x1="87.9973" y1="95" x2="663.527" y2="535.23" gradientUnits="userSpaceOnUse">
<stop stop-color="#3C5ED9"/>
<stop offset="0.564583" stop-color="#2645EB" stop-opacity="0.902649"/>
<stop offset="0.858648" stop-color="#1190DA"/>
<stop offset="1" stop-color="#17EBB4" stop-opacity="0.82"/>
</linearGradient>
</defs>
</svg>
